<svg width="253" height="253" viewBox="0 0 253 253" fill="none" xmlns="http://www.w3.org/2000/svg">
<path d="M205.83 178.9C206.529 175.11 206.884 171.264 206.89 167.41C206.9 153.299 202.184 139.591 193.494 128.473C184.804 117.356 172.641 109.469 158.945 106.071C145.249 102.674 130.809 103.961 117.931 109.729C105.052 115.496 94.476 125.41 87.89 137.89C85.4634 137.524 83.014 137.33 80.56 137.31C67.0525 137.31 54.0983 142.676 44.5471 152.227C34.9958 161.778 29.63 174.733 29.63 188.24C29.63 201.747 34.9958 214.702 44.5471 224.253C54.0983 233.804 67.0525 239.17 80.56 239.17H192C199.183 239.173 206.154 236.737 211.771 232.261C217.389 227.785 221.321 221.534 222.923 214.533C224.525 207.531 223.702 200.193 220.59 193.719C217.477 187.246 212.259 182.021 205.79 178.9H205.83Z" fill="#F4F4F8"/>
<path d="M25.8 40.43C24.7742 34.9854 25.7376 29.3535 28.5148 24.5595C31.2921 19.7654 35.6986 16.1282 40.9321 14.3098C46.1656 12.4914 51.878 12.6128 57.0295 14.6519C62.181 16.6911 66.429 20.5123 69 25.42C69.887 25.2843 70.7827 25.2141 71.68 25.21C74.1649 25.1525 76.6361 25.5922 78.9486 26.5033C81.2611 27.4144 83.3681 28.7786 85.1458 30.5157C86.9236 32.2527 88.3362 34.3276 89.3006 36.6183C90.265 38.9091 90.7618 41.3695 90.7618 43.855C90.7618 46.3405 90.265 48.8009 89.3006 51.0917C88.3362 53.3824 86.9236 55.4573 85.1458 57.1943C83.3681 58.9314 81.2611 60.2956 78.9486 61.2067C76.6361 62.1178 74.1649 62.5576 71.68 62.5H30.85C28.2189 62.5027 25.6648 61.6117 23.6064 59.9728C21.548 58.334 20.1073 56.0445 19.5204 53.4797C18.9335 50.9148 19.2353 48.2266 20.3762 45.8557C21.5171 43.4848 23.4295 41.5717 25.8 40.43Z" fill="#F4F4F8"/>
<path d="M235.46 77.47C236.086 74.0367 235.463 70.4927 233.704 67.4786C231.945 64.4645 229.166 62.1791 225.868 61.0353C222.571 59.8916 218.974 59.965 215.726 61.2423C212.478 62.5197 209.795 64.9166 208.16 68C206.559 67.7697 204.928 67.8716 203.368 68.2992C201.809 68.7267 200.354 69.4709 199.094 70.4853C197.835 71.4997 196.797 72.7625 196.047 74.1952C195.297 75.6279 194.85 77.1998 194.733 78.8129C194.617 80.4259 194.834 82.0457 195.371 83.5712C195.908 85.0967 196.753 86.4953 197.854 87.6799C198.955 88.8645 200.289 89.8096 201.771 90.4565C203.253 91.1034 204.853 91.4382 206.47 91.44H232.27C233.951 91.4643 235.59 90.9106 236.912 89.8715C238.234 88.8324 239.159 87.3709 239.533 85.7314C239.906 84.0919 239.706 82.3739 238.964 80.8646C238.223 79.3554 236.986 78.1464 235.46 77.44V77.47Z" fill="#F4F4F8"/>
<path d="M193.31 193.25H59.69C57.7706 193.251 55.8697 192.874 54.0959 192.141C52.3222 191.407 50.7104 190.331 49.3527 188.974C47.995 187.618 46.9179 186.007 46.1831 184.233C45.4482 182.46 45.07 180.559 45.07 178.64V107.17C45.0687 104.981 45.6254 102.828 46.6875 100.913C47.7495 98.9993 49.2819 97.3874 51.14 96.23L119.67 53.46C121.718 52.1802 124.085 51.5017 126.5 51.5017C128.915 51.5017 131.282 52.1802 133.33 53.46L201.86 96.23C203.718 97.3874 205.25 98.9993 206.313 100.913C207.375 102.828 207.931 104.981 207.93 107.17V178.64C207.93 180.559 207.552 182.46 206.817 184.233C206.082 186.007 205.005 187.618 203.647 188.974C202.29 190.331 200.678 191.407 198.904 192.141C197.13 192.874 195.229 193.251 193.31 193.25Z" fill="white" stroke="#151515" stroke-width="3" stroke-miterlimit="10" stroke-linecap="round"/>
<path d="M69.03 114.42V66.9099H184.43V114.42" fill="white"/>
<path d="M69.03 114.42V66.9099H184.43V114.42" stroke="#151515" stroke-width="3" stroke-miterlimit="10" stroke-linecap="round"/>
<path d="M46.71 100.88L113.3 142.63C117.369 144.777 121.9 145.899 126.5 145.899C131.1 145.899 135.631 144.777 139.7 142.63L206.28 100.86" stroke="#151515" stroke-width="3" stroke-miterlimit="10" stroke-linecap="round"/>
<path d="M45.84 183.32L118.84 141.23C121.176 139.879 123.827 139.168 126.525 139.168C129.223 139.168 131.874 139.879 134.21 141.23L207.21 183.32" fill="white"/>
<path d="M45.84 183.32L118.84 141.23C121.176 139.879 123.827 139.168 126.525 139.168C129.223 139.168 131.874 139.879 134.21 141.23L207.21 183.32" stroke="#151515" stroke-width="3" stroke-miterlimit="10"/>
<path d="M126.5 131.95C142.467 131.95 155.41 119.006 155.41 103.04C155.41 87.0733 142.467 74.1299 126.5 74.1299C110.533 74.1299 97.59 87.0733 97.59 103.04C97.59 119.006 110.533 131.95 126.5 131.95Z" fill="white" stroke="#F4F4F8" stroke-width="2"/>
<path d="M133 96.3399L131.34 94.6899L123.91 102.12L125.56 103.77L133 96.3399ZM138 94.6899L125.61 107.19L120.66 102.19L119 103.88L125.61 110.49L139.77 96.3299L138 94.6899ZM112.28 103.89L118.89 110.5L120.54 108.85L113.93 102.23L112.28 103.89Z" fill="#5EA9FF"/>
</svg>
