<svg width="188" height="18" viewBox="0 0 188 18" fill="none" xmlns="http://www.w3.org/2000/svg">
<path fill-rule="evenodd" clip-rule="evenodd" d="M112.066 0.728648C113.259 0.728648 114.368 0.942047 115.427 1.35244C116.486 1.79565 117.377 2.37019 118.15 3.09246C118.923 3.83116 119.545 4.70117 119.982 5.6861C120.436 6.67103 120.638 7.75444 120.638 8.8871C120.638 10.0197 120.419 11.0867 119.982 12.0881C119.528 13.073 118.923 13.943 118.15 14.6817C117.377 15.4204 116.486 15.9949 115.427 16.4053C114.368 16.8485 113.259 17.0455 112.066 17.0455H105.662V0.728638L112.066 0.728648ZM114.184 13.5652C114.823 13.3189 115.361 12.9414 115.815 12.4817C116.269 12.0221 116.588 11.464 116.857 10.8566C117.109 10.2328 117.227 9.59266 117.227 8.88681C117.227 8.18091 117.109 7.50791 116.857 6.88413C116.605 6.26031 116.269 5.73505 115.815 5.27543C115.361 4.81579 114.823 4.45465 114.184 4.17557C113.546 3.92935 112.84 3.7816 112.067 3.7816H109.075V13.9756H112.067C112.84 13.9756 113.546 13.8442 114.184 13.5652V13.5652Z" fill="black"/>
<path d="M144.068 0.728638V17.0291H140.656V0.728638H144.068Z" fill="black"/>
<path d="M159.968 10.6437C159.464 12.5151 158.085 14.1074 155.362 14.1074C151.799 14.1074 150.673 11.4152 150.673 8.88727C150.673 6.3593 151.816 3.66718 155.362 3.66718C158.085 3.66718 159.464 5.24304 159.968 7.13082H163.464C162.774 3.12547 159.749 0.449768 155.497 0.449768C150.656 0.449768 147.127 3.91342 147.127 8.88727C147.127 13.8447 150.64 17.3248 155.497 17.3248C159.749 17.3248 162.774 14.6655 163.464 10.6601H159.968V10.6437Z" fill="black"/>
<path d="M187.868 0.728638V17.0291H184.456V0.728638H187.868Z" fill="black"/>
<path d="M169.732 0.728638V7.34405H177.228V0.728638H180.657V17.0291H177.245V10.266H169.732V17.0291H166.32V0.728638H169.732Z" fill="black"/>
<path fill-rule="evenodd" clip-rule="evenodd" d="M97.3595 0.449768C94.5358 0.449768 92.25 2.68226 92.25 5.44004C92.25 8.19783 94.5358 10.4303 97.3595 10.4303C100.183 10.4303 102.469 8.19783 102.469 5.44004C102.452 2.68226 100.166 0.449768 97.3595 0.449768ZM97.3595 7.47534C96.1997 7.47534 95.2585 6.55608 95.2585 5.42341C95.2585 4.29074 96.1997 3.37148 97.3595 3.37148C98.5192 3.37148 99.4604 4.29075 99.4604 5.42341C99.4436 6.55608 98.5024 7.47534 97.3595 7.47534Z" fill="black"/>
<path fill-rule="evenodd" clip-rule="evenodd" d="M134.403 17.0291H138.017L132.336 0.728638H130.487H128.941H127.092L121.344 17.0291H124.957L126.083 13.6804H133.277L134.403 17.0291ZM127.058 10.8237L129.697 3.0264L132.319 10.8237H127.058Z" fill="black"/>
<path fill-rule="evenodd" clip-rule="evenodd" d="M6.59998 0C5.22239 0 3.58908 1.29 2.24186 3.45875C0.837679 5.70482 0 8.48541 0 10.9001C0 14.4351 2.03668 18 6.60035 18C11.1586 18 13.2007 14.4351 13.2007 10.9001C13.2007 8.48541 12.3634 5.70482 10.966 3.45875C9.60615 1.29 7.97304 0 6.59998 0ZM42.2402 5.30366H46.8604V17.036H51.8107V5.30366H56.4291V0.963784H42.2402V5.30311V5.30366ZM66.9896 5.30366H74.25V0.963784H66.9896C60.3195 0.963784 56.7572 4.19403 56.7572 8.99936C56.7572 13.8047 60.3195 17.036 66.9896 17.036H74.25V12.6963H66.9896C63.9025 12.6963 61.8734 11.6216 61.8734 8.99991C61.8734 6.3782 63.9025 5.30366 66.9896 5.30366ZM32.1718 0.963784L29.5336 10.5566L26.8953 0.963784H18.1508V17.036H23.0992V3.96332L26.6954 17.036H32.3717L35.9698 3.95543V17.036H40.9201V0.963784H32.1718Z" fill="#E30613"/>
<path fill-rule="evenodd" clip-rule="evenodd" d="M89.2296 5.89784L87.6386 4.30685L84.4561 7.48934L81.2736 4.30682L79.6826 5.89781L82.8651 9.08033L79.6836 12.2618L81.2746 13.8528L84.4561 10.6713L87.6375 13.8528L89.2285 12.2618L86.0471 9.08033L89.2296 5.89784Z" fill="black"/>
</svg>
