<svg width="253" height="253" fill="none" xmlns="http://www.w3.org/2000/svg"><path d="M205.83 178.9a63.155 63.155 0 00-46.885-72.829A63.148 63.148 0 0087.89 137.89a51.989 51.989 0 00-7.33-.58 50.93 50.93 0 000 101.86H192a31.712 31.712 0 0028.59-45.451 31.715 31.715 0 00-14.8-14.819h.04zM25.8 40.43A23.12 23.12 0 0169 25.42a18.273 18.273 0 012.68-.21A18.652 18.652 0 0189.3 51.092 18.648 18.648 0 0171.68 62.5H30.85a11.61 11.61 0 01-5.05-22.07zm209.66 37.04a14.62 14.62 0 00-27.3-9.47 11.781 11.781 0 10-1.69 23.44h25.8a7.34 7.34 0 003.19-14v.03z" fill="#F4F4F8"/><path d="M193.31 193.25H59.69a14.614 14.614 0 01-14.62-14.61v-71.47a12.884 12.884 0 016.07-10.94l68.53-42.77a12.89 12.89 0 0113.66 0l68.53 42.77a12.892 12.892 0 014.453 4.683 12.888 12.888 0 011.617 6.257v71.47a14.606 14.606 0 01-9.026 13.501 14.63 14.63 0 01-5.594 1.109z" fill="#fff" stroke="#151515" stroke-width="3" stroke-miterlimit="10" stroke-linecap="round"/><path d="M69.03 114.42V66.91h115.4v47.51" fill="#fff"/><path d="M69.03 114.42V66.91h115.4v47.51" stroke="#151515" stroke-width="3" stroke-miterlimit="10" stroke-linecap="round"/><path d="M46.71 100.88l66.59 41.75a28.286 28.286 0 0026.4 0l66.58-41.77" stroke="#151515" stroke-width="3" stroke-miterlimit="10" stroke-linecap="round"/><path d="M45.84 183.32l73-42.09a15.35 15.35 0 0115.37 0l73 42.09" fill="#fff"/><path d="M45.84 183.32l73-42.09a15.35 15.35 0 0115.37 0l73 42.09" stroke="#151515" stroke-width="3" stroke-miterlimit="10"/><path d="M126.5 131.95c15.967 0 28.91-12.944 28.91-28.91 0-15.967-12.943-28.91-28.91-28.91s-28.91 12.943-28.91 28.91c0 15.966 12.943 28.91 28.91 28.91z" fill="#fff" stroke="#F4F4F8" stroke-width="2"/><path d="M133 96.34l-1.66-1.65-7.43 7.43 1.65 1.65 7.44-7.43zm5-1.65l-12.39 12.5-4.95-5-1.66 1.69 6.61 6.61 14.16-14.16-1.77-1.64zm-25.72 9.2l6.61 6.61 1.65-1.65-6.61-6.62-1.65 1.66z" fill="#5EA9FF"/></svg>