<svg width="188" height="18" fill="none" xmlns="http://www.w3.org/2000/svg"><path fill-rule="evenodd" clip-rule="evenodd" d="M112.066.729a9.18 9.18 0 013.361.623 9.014 9.014 0 012.723 1.74 8.148 8.148 0 011.832 2.594c.454.985.656 2.068.656 3.201s-.219 2.2-.656 3.201a8.424 8.424 0 01-1.832 2.594 8.123 8.123 0 01-2.723 1.723c-1.059.444-2.168.64-3.361.64h-6.404V.73h6.404zm2.118 12.836a4.614 4.614 0 001.631-1.083c.454-.46.773-1.018 1.042-1.625.252-.624.37-1.264.37-1.97a5.31 5.31 0 00-.37-2.003 4.78 4.78 0 00-1.042-1.609 5.141 5.141 0 00-1.631-1.1 5.839 5.839 0 00-2.117-.393h-2.992v10.194h2.992c.773 0 1.479-.132 2.117-.41z" fill="#000"/><path d="M144.068.729v16.3h-3.412V.73h3.412zm15.9 9.915c-.504 1.871-1.883 3.463-4.606 3.463-3.563 0-4.689-2.692-4.689-5.22 0-2.528 1.143-5.22 4.689-5.22 2.723 0 4.102 1.576 4.606 3.464h3.496c-.69-4.006-3.715-6.681-7.967-6.681-4.841 0-8.37 3.463-8.37 8.437 0 4.958 3.513 8.438 8.37 8.438 4.252 0 7.277-2.66 7.967-6.665h-3.496v-.016zm27.9-9.915v16.3h-3.412V.73h3.412zm-18.136 0v6.615h7.496V.729h3.429v16.3h-3.412v-6.763h-7.513v6.763h-3.412V.73h3.412z" fill="#000"/><path fill-rule="evenodd" clip-rule="evenodd" d="M97.36.45c-2.824 0-5.11 2.232-5.11 4.99s2.286 4.99 5.11 4.99c2.823 0 5.109-2.232 5.109-4.99-.017-2.758-2.303-4.99-5.11-4.99zm0 7.025c-1.16 0-2.102-.919-2.102-2.052 0-1.132.942-2.052 2.102-2.052s2.1.92 2.1 2.052c-.016 1.133-.958 2.052-2.1 2.052zm37.043 9.555h3.614L132.336.728h-5.244l-5.748 16.3h3.613l1.126-3.349h7.194l1.126 3.35zm-7.345-6.206l2.639-7.798 2.622 7.798h-5.261z" fill="#000"/><path fill-rule="evenodd" clip-rule="evenodd" d="M6.6 0C5.222 0 3.59 1.29 2.242 3.459.838 5.705 0 8.485 0 10.9 0 14.435 2.037 18 6.6 18c4.559 0 6.6-3.565 6.6-7.1 0-2.415-.837-5.195-2.234-7.441C9.606 1.29 7.973 0 6.6 0zm35.64 5.304h4.62v11.732h4.95V5.304h4.62V.964H42.24v4.34zm24.75 0h7.26V.964h-7.26c-6.67 0-10.233 3.23-10.233 8.035 0 4.806 3.563 8.037 10.233 8.037h7.26v-4.34h-7.26c-3.087 0-5.117-1.074-5.117-3.696s2.03-3.696 5.117-3.696zM32.172.964l-2.638 9.593L26.895.964h-8.744v16.072h4.948V3.963l3.596 13.073h5.677l3.598-13.08v13.08h4.95V.964h-8.748z" fill="#E30613"/><path fill-rule="evenodd" clip-rule="evenodd" d="M89.23 5.898l-1.591-1.591-3.183 3.182-3.182-3.182-1.591 1.59 3.182 3.183-3.181 3.182 1.59 1.59 3.182-3.18 3.181 3.18 1.591-1.59-3.18-3.182 3.182-3.182z" fill="#000"/></svg>